<svg width="23" height="24" viewBox="0 0 23 24" fill="none" xmlns="http://www.w3.org/2000/svg">
<path d="M21.5624 21.1765H1.43749C0.643587 21.1765 0 21.8085 0 22.5882C0 23.3679 0.643587 24 1.43749 24H21.5624C22.3563 24 22.9999 23.3679 22.9999 22.5882C22.9999 21.8085 22.3563 21.1765 21.5624 21.1765Z" fill="#231F20"/>
<path d="M0 19.7647V22.5882C0 23.3679 0.643587 24 1.43749 24C2.2314 24 2.87499 23.3679 2.87499 22.5882V19.7647C2.87499 18.985 2.2314 18.3529 1.43749 18.3529C0.643587 18.3529 0 18.985 0 19.7647Z" fill="#231F20"/>
<path d="M20.125 19.7647V22.5882C20.125 23.3679 20.7686 24 21.5625 24C22.3564 24 23 23.3679 23 22.5882V19.7647C23 18.985 22.3564 18.3529 21.5625 18.3529C20.7686 18.3529 20.125 18.985 20.125 19.7647Z" fill="#231F20"/>
<path d="M11.5 16.9412C11.202 16.9434 10.9107 16.8546 10.6663 16.687L4.91633 12.7059C4.60642 12.49 4.39616 12.1623 4.33151 11.7946C4.26686 11.4269 4.35309 11.049 4.57133 10.7435C4.68027 10.5908 4.81893 10.4609 4.9793 10.3611C5.13967 10.2613 5.31857 10.1937 5.50568 10.1622C5.69279 10.1307 5.8844 10.1359 6.06945 10.1775C6.2545 10.2192 6.42932 10.2964 6.58382 10.4047L11.5 13.7788L16.3875 10.1647C16.6925 9.94004 17.0759 9.84358 17.4533 9.89653C17.8307 9.94949 18.1713 10.1475 18.4 10.4471C18.6288 10.7466 18.727 11.1231 18.6731 11.4938C18.6191 11.8644 18.4175 12.1989 18.1125 12.4235L12.3625 16.6588C12.1137 16.8421 11.8111 16.9412 11.5 16.9412Z" fill="#231F20"/>
<path d="M11.4995 14.1176C11.1183 14.1176 10.7526 13.9689 10.483 13.7041C10.2135 13.4394 10.062 13.0803 10.062 12.7059V1.41176C10.062 1.03734 10.2135 0.678253 10.483 0.413496C10.7526 0.148739 11.1183 0 11.4995 0C11.8808 0 12.2464 0.148739 12.516 0.413496C12.7855 0.678253 12.937 1.03734 12.937 1.41176V12.7059C12.937 13.0803 12.7855 13.4394 12.516 13.7041C12.2464 13.9689 11.8808 14.1176 11.4995 14.1176Z" fill="#231F20"/>
</svg>
