<svg width="20" height="14" viewBox="0 0 20 14" fill="none" xmlns="http://www.w3.org/2000/svg">
<path d="M6 1.50067L19 1.50139M6 7.5007L19 7.5015M6 13.5007L19 13.5015M1.5 1.5H1.51M1.5 7.5H1.51M1.5 13.5H1.51M2 1.5C2 1.77614 1.77614 2 1.5 2C1.22386 2 1 1.77614 1 1.5C1 1.22386 1.22386 1 1.5 1C1.77614 1 2 1.22386 2 1.5ZM2 7.5C2 7.7761 1.77614 8 1.5 8C1.22386 8 1 7.7761 1 7.5C1 7.2239 1.22386 7 1.5 7C1.77614 7 2 7.2239 2 7.5ZM2 13.5C2 13.7761 1.77614 14 1.5 14C1.22386 14 1 13.7761 1 13.5C1 13.2239 1.22386 13 1.5 13C1.77614 13 2 13.2239 2 13.5Z" stroke="black" stroke-width="2" stroke-linecap="round" stroke-linejoin="round"/>
</svg>
