<!DOCTYPE svg PUBLIC "-//W3C//DTD SVG 1.1//EN" "http://www.w3.org/Graphics/SVG/1.1/DTD/svg11.dtd">
<!-- Uploaded to: SVG Repo, www.svgrepo.com, Transformed by: SVG Repo Mixer Tools -->
<svg width="256px" height="256px" viewBox="-5.04 -5.04 34.08 34.08" xmlns="http://www.w3.org/2000/svg" fill="#563B24" transform="rotate(0)">
<g id="SVGRepo_bgCarrier" stroke-width="0" transform="translate(0,0), scale(1)">
<rect x="-5.04" y="-5.04" width="34.08" height="34.08" rx="17.04" fill="#FFF5BE" strokewidth="0"/>
</g>
<g id="SVGRepo_tracerCarrier" stroke-linecap="round" stroke-linejoin="round" stroke="#7D1717" stroke-width="4.8">
<defs>
<style>.a,.b{fill:none;stroke:#563B24;stroke-linecap:round;stroke-linejoin:round;stroke-width:1.5px;}.b{fill-rule:evenodd;}</style>
</defs>
<circle class="a" cx="7" cy="16" r="2"/>
<circle class="a" cx="16" cy="6" r="3"/>
<circle class="a" cx="18" cy="18" r="4"/>
<circle class="a" cx="4" cy="4" r="2"/>
<line class="a" x1="14" x2="8.75774" y1="18" y2="16.95155"/>
<line class="a" x1="16.95928" x2="18.2766" y1="8.83997" y2="14.01668"/>
<line class="a" x1="6" x2="13.16407" y1="4" y2="5.02344"/>
<path class="b" d="M6.7441,14.01668C7,14,4.35961,5.96728,4.35961,5.96728"/>
</g>
<g id="SVGRepo_iconCarrier">
<defs>
<style>.a,.b{fill:none;stroke:#563B24;stroke-linecap:round;stroke-linejoin:round;stroke-width:1.5px;}.b{fill-rule:evenodd;}</style>
</defs>
<circle class="a" cx="7" cy="16" r="2"/>
<circle class="a" cx="16" cy="6" r="3"/>
<circle class="a" cx="18" cy="18" r="4"/>
<circle class="a" cx="4" cy="4" r="2"/>
<line class="a" x1="14" x2="8.75774" y1="18" y2="16.95155"/>
<line class="a" x1="16.95928" x2="18.2766" y1="8.83997" y2="14.01668"/>
<line class="a" x1="6" x2="13.16407" y1="4" y2="5.02344"/>
<path class="b" d="M6.7441,14.01668C7,14,4.35961,5.96728,4.35961,5.96728"/>
</g>
</svg>