<svg width="21" height="20" viewBox="0 0 21 20" fill="none" xmlns="http://www.w3.org/2000/svg">
<path fill-rule="evenodd" clip-rule="evenodd" d="M7.21875 5.2381H9.31875V3.33334H7.21875V5.2381ZM18.9 17.6191H16.8V11.9048H15.8812H14.7H6.3H4.5276H4.2V17.6191H2.1V6.9876L4.2 5.08284V8.09524H5.11875H6.3H14.7H16.4714H16.8V2.38096H18.9V17.6191ZM6.3 17.6191H14.7V13.8095H6.3V17.6191ZM6.3 3.17808L7.17885 2.38096H14.7V6.19048H6.3V3.17808ZM20.9664 0.476196H18.8664H6.3V0.483811L4.2084 2.38096H4.2V2.38857L0.00839996 6.19048H0V17.6191V19.5238H2.1H18.8664H20.9664H21V17.6191V2.38096V0.476196H20.9664Z" fill="black"/>
</svg>
