<svg width="24" height="23" viewBox="0 0 24 23" fill="none" xmlns="http://www.w3.org/2000/svg">
<path d="M2.37624 15.5471C2.37624 14.9481 1.84429 14.4624 1.18812 14.4624C0.531945 14.4624 0 14.9481 0 15.5471H2.37624ZM24 15.5471C24 14.9481 23.468 14.4624 22.8119 14.4624C22.1557 14.4624 21.6238 14.9481 21.6238 15.5471H24ZM12.9369 1.75183C13.3404 1.27949 13.2482 0.597893 12.7308 0.22945C12.2134 -0.138979 11.4668 -0.0547356 11.0631 0.41762L12.9369 1.75183ZM4.88494 7.64881C4.48138 8.12115 4.57366 8.80272 5.09106 9.17122C5.60844 9.53957 6.35504 9.4554 6.75862 8.98306L4.88494 7.64881ZM12.9369 0.41762C12.5332 -0.0547356 11.7866 -0.138979 11.2692 0.22945C10.7518 0.597893 10.6596 1.27949 11.0631 1.75183L12.9369 0.41762ZM17.2413 8.98306C17.645 9.4554 18.3916 9.53957 18.909 9.17122C19.4264 8.80272 19.5186 8.12115 19.1151 7.64881L17.2413 8.98306ZM13.1881 1.08473C13.1881 0.48568 12.6562 4.76321e-05 12 4.76321e-05C11.3438 4.76321e-05 10.8119 0.48568 10.8119 1.08473H13.1881ZM10.8119 16.9933C10.8119 17.5924 11.3438 18.078 12 18.078C12.6562 18.078 13.1881 17.5924 13.1881 16.9933H10.8119ZM0 15.5471V16.9933H2.37624V15.5471H0ZM0 16.9933C0 19.9626 2.57833 22.4167 5.82178 22.4167V20.2474C3.94704 20.2474 2.37624 18.8166 2.37624 16.9933H0ZM5.82178 22.4167H18.1782V20.2474H5.82178V22.4167ZM18.1782 22.4167C21.4216 22.4167 24 19.9626 24 16.9933H21.6238C21.6238 18.8166 20.0529 20.2474 18.1782 20.2474V22.4167ZM24 16.9933V15.5471H21.6238V16.9933H24ZM11.0631 0.41762L4.88494 7.64881L6.75862 8.98306L12.9369 1.75183L11.0631 0.41762ZM11.0631 1.75183L17.2413 8.98306L19.1151 7.64881L12.9369 0.41762L11.0631 1.75183ZM10.8119 1.08473V16.9933H13.1881V1.08473H10.8119Z" fill="black"/>
</svg>
