<!DOCTYPE svg PUBLIC "-//W3C//DTD SVG 1.1//EN" "http://www.w3.org/Graphics/SVG/1.1/DTD/svg11.dtd">
<!-- Uploaded to: SVG Repo, www.svgrepo.com, Transformed by: SVG Repo Mixer Tools -->
<svg fill="#000000" height="800px" width="800px" version="1.1" id="Capa_1" xmlns="http://www.w3.org/2000/svg" xmlns:xlink="http://www.w3.org/1999/xlink" viewBox="-15.12 -15.12 72.24 72.24" xml:space="preserve">
<g id="SVGRepo_bgCarrier" stroke-width="0"/>
<g id="SVGRepo_tracerCarrier" stroke-linecap="round" stroke-linejoin="round"/>
<g id="SVGRepo_iconCarrier"> <path d="M35.5,0c-0.552,0-1,0.447-1,1v18.095L7.068,0.177C6.762-0.034,6.364-0.057,6.035,0.114C5.706,0.287,5.5,0.628,5.5,1v40 c0,0.372,0.206,0.713,0.535,0.886C6.181,41.962,6.341,42,6.5,42c0.199,0,0.397-0.06,0.568-0.177L34.5,22.905V41c0,0.553,0.448,1,1,1 s1-0.447,1-1V1C36.5,0.447,36.052,0,35.5,0z"/> </g>
</svg>