<svg width="1928" height="1080" viewBox="0 0 1928 1080" fill="none" xmlns="http://www.w3.org/2000/svg">
<mask id="mask0_26_6" style="mask-type:alpha" maskUnits="userSpaceOnUse" x="4" y="0" width="1920" height="1080">
<rect x="4" width="1920" height="1080" fill="#FFF5BE"/>
</mask>
<g mask="url(#mask0_26_6)">
<g opacity="0.47">
<ellipse cx="379.99" cy="275.301" rx="22.0097" ry="23.6987" fill="#B49082" fill-opacity="0.35"/>
<ellipse cx="288.01" cy="208.096" rx="22.0097" ry="23.6987" fill="#B49082" fill-opacity="0.35"/>
<ellipse cx="379.99" cy="160.699" rx="22.0097" ry="23.6987" fill="#B49082" fill-opacity="0.35"/>
<line x1="378.819" y1="251.603" x2="378.819" y2="184.397" stroke="#B49082" stroke-width="3"/>
<line y1="-1.5" x2="54.3035" y2="-1.5" transform="matrix(0.883209 -0.46898 0.416407 0.909178 310.02 197.131)" stroke="#B49082" stroke-width="3"/>
</g>
<g opacity="0.47">
<ellipse cx="437.99" cy="1029.3" rx="22.0097" ry="23.6987" fill="#B49082" fill-opacity="0.35"/>
<ellipse cx="346.01" cy="962.096" rx="22.0097" ry="23.6987" fill="#B49082" fill-opacity="0.35"/>
<ellipse cx="437.99" cy="914.699" rx="22.0097" ry="23.6987" fill="#B49082" fill-opacity="0.35"/>
<line x1="436.819" y1="1005.6" x2="436.819" y2="938.397" stroke="#B49082" stroke-width="3"/>
<line y1="-1.5" x2="54.3035" y2="-1.5" transform="matrix(0.883209 -0.46898 0.416407 0.909178 368.02 951.131)" stroke="#B49082" stroke-width="3"/>
</g>
<g opacity="0.47">
<ellipse cx="154.991" cy="151.935" rx="22.0097" ry="21.0655" fill="#B49082" fill-opacity="0.35"/>
<ellipse cx="63.0097" cy="92.1965" rx="22.0097" ry="21.0655" fill="#B49082" fill-opacity="0.35"/>
<ellipse cx="154.991" cy="50.0655" rx="22.0097" ry="21.0655" fill="#B49082" fill-opacity="0.35"/>
<line x1="153.819" y1="130.869" x2="153.819" y2="71.131" stroke="#B49082" stroke-width="3"/>
<line y1="-1.5" x2="53.0354" y2="-1.5" transform="matrix(0.904328 -0.426839 0.458028 0.888937 85.019 82.4498)" stroke="#B49082" stroke-width="3"/>
</g>
<g opacity="0.47">
<circle cx="86.5371" cy="281.966" r="16.8269" transform="rotate(-54.5828 86.5371 281.966)" fill="#B49082" fill-opacity="0.56"/>
<circle cx="69.7719" cy="180.465" r="16.8269" transform="rotate(-54.5828 69.7719 180.465)" fill="#B49082" fill-opacity="0.46"/>
<circle cx="175.361" cy="275.881" r="16.8269" transform="rotate(-54.5828 175.361 275.881)" fill="#B49082" fill-opacity="0.72"/>
<line x1="82.7348" y1="266.256" x2="71.5112" y2="195.378" stroke="#B49082" stroke-width="3"/>
<line x1="103.596" y1="285.369" x2="163.774" y2="281.15" stroke="#B49082" stroke-width="3"/>
</g>
<g opacity="0.47">
<circle cx="241.5" cy="374.5" r="32.5" fill="#B49082" fill-opacity="0.76"/>
<circle cx="425.5" cy="353.5" r="32.5" fill="#B49082" fill-opacity="0.46"/>
<circle cx="350.5" cy="507.5" r="32.5" fill="#B49082" fill-opacity="0.59"/>
<line x1="361.68" y1="474.288" x2="409.68" y2="385.288" stroke="#B49082" stroke-width="3"/>
<line x1="254.159" y1="406.047" x2="328.159" y2="496.047" stroke="#B49082" stroke-width="3"/>
</g>
<g opacity="0.47">
<circle cx="381" cy="628" r="22" fill="#B49082" fill-opacity="0.76"/>
<circle cx="547.5" cy="605.5" r="32.5" fill="#B49082" fill-opacity="0.46"/>
<circle cx="334.5" cy="751.5" r="24.5" fill="#B49082" fill-opacity="0.46"/>
<circle cx="472.5" cy="759.5" r="32.5" fill="#B49082" fill-opacity="0.59"/>
<line x1="483.68" y1="726.288" x2="531.68" y2="637.288" stroke="#B49082" stroke-width="3"/>
<line x1="358.08" y1="737.816" x2="515.08" y2="615.816" stroke="#B49082" stroke-width="3"/>
<line x1="397.75" y1="625.521" x2="521.75" y2="604.521" stroke="#B49082" stroke-width="3"/>
<line x1="359" y1="758.5" x2="440" y2="758.5" stroke="#B49082" stroke-width="3"/>
</g>
<g opacity="0.47">
<circle cx="111" cy="869" r="22" fill="#B49082" fill-opacity="0.76"/>
<circle cx="277.5" cy="846.5" r="32.5" fill="#B49082" fill-opacity="0.46"/>
<circle cx="64.5" cy="992.5" r="24.5" fill="#B49082" fill-opacity="0.46"/>
<circle cx="202.5" cy="1000.5" r="32.5" fill="#B49082" fill-opacity="0.59"/>
<line x1="213.68" y1="967.288" x2="261.68" y2="878.288" stroke="#B49082" stroke-width="3"/>
<line x1="88.0796" y1="978.816" x2="245.08" y2="856.816" stroke="#B49082" stroke-width="3"/>
<line x1="127.75" y1="866.521" x2="251.75" y2="845.521" stroke="#B49082" stroke-width="3"/>
<line x1="89" y1="999.5" x2="170" y2="999.5" stroke="#B49082" stroke-width="3"/>
</g>
<g opacity="0.47">
<circle cx="117" cy="584" r="22" fill="#B49082" fill-opacity="0.76"/>
<circle cx="210.5" cy="594.5" r="32.5" fill="#B49082" fill-opacity="0.46"/>
<circle cx="70.5" cy="707.5" r="24.5" fill="#B49082" fill-opacity="0.46"/>
<circle cx="208.5" cy="715.5" r="32.5" fill="#B49082" fill-opacity="0.8"/>
<line x1="93.9728" y1="693.907" x2="176.973" y2="615.907" stroke="#B49082" stroke-width="3"/>
<line x1="66.648" y1="682.35" x2="103.648" y2="605.35" stroke="#B49082" stroke-width="3"/>
<line x1="95" y1="714.5" x2="176" y2="714.5" stroke="#B49082" stroke-width="3"/>
</g>
<g opacity="0.47">
<circle cx="76.3631" cy="373.322" r="22" transform="rotate(73.6284 76.3631 373.322)" fill="#B49082" fill-opacity="0.76"/>
<circle cx="92.6429" cy="465.991" r="32.5" transform="rotate(73.6284 92.6429 465.991)" fill="#B49082" fill-opacity="0.46"/>
<circle cx="-24.0143" cy="498.178" r="32.5" transform="rotate(73.6284 -24.0143 498.178)" fill="#B49082" fill-opacity="0.8"/>
<line x1="-35.5782" y1="382.208" x2="62.6541" y2="439.857" stroke="#B49082" stroke-width="3"/>
<line x1="-32.1923" y1="352.733" x2="52.1147" y2="366.53" stroke="#B49082" stroke-width="3"/>
</g>
<g opacity="0.47">
<ellipse cx="954.99" cy="251.301" rx="22.0097" ry="23.6987" fill="#B49082" fill-opacity="0.35"/>
<ellipse cx="863.01" cy="184.096" rx="22.0097" ry="23.6987" fill="#B49082" fill-opacity="0.35"/>
<ellipse cx="954.99" cy="136.699" rx="22.0097" ry="23.6987" fill="#B49082" fill-opacity="0.35"/>
<line x1="953.819" y1="227.603" x2="953.819" y2="160.397" stroke="#B49082" stroke-width="3"/>
<line y1="-1.5" x2="54.3035" y2="-1.5" transform="matrix(0.883209 -0.46898 0.416407 0.909178 885.02 173.131)" stroke="#B49082" stroke-width="3"/>
</g>
<g opacity="0.47">
<ellipse cx="1012.99" cy="1005.3" rx="22.0097" ry="23.6987" fill="#B49082" fill-opacity="0.35"/>
<ellipse cx="921.01" cy="938.096" rx="22.0097" ry="23.6987" fill="#B49082" fill-opacity="0.35"/>
<ellipse cx="1012.99" cy="890.699" rx="22.0097" ry="23.6987" fill="#B49082" fill-opacity="0.35"/>
<line x1="1011.82" y1="981.603" x2="1011.82" y2="914.397" stroke="#B49082" stroke-width="3"/>
<line y1="-1.5" x2="54.3035" y2="-1.5" transform="matrix(0.883209 -0.46898 0.416407 0.909178 943.02 927.131)" stroke="#B49082" stroke-width="3"/>
</g>
<g opacity="0.47">
<ellipse cx="729.991" cy="127.935" rx="22.0097" ry="21.0655" fill="#B49082" fill-opacity="0.35"/>
<ellipse cx="638.01" cy="68.1965" rx="22.0097" ry="21.0655" fill="#B49082" fill-opacity="0.35"/>
<ellipse cx="729.991" cy="26.0655" rx="22.0097" ry="21.0655" fill="#B49082" fill-opacity="0.35"/>
<line x1="728.819" y1="106.869" x2="728.819" y2="47.131" stroke="#B49082" stroke-width="3"/>
<line y1="-1.5" x2="53.0354" y2="-1.5" transform="matrix(0.904328 -0.426839 0.458028 0.888937 660.019 58.4498)" stroke="#B49082" stroke-width="3"/>
</g>
<g opacity="0.47">
<circle cx="661.537" cy="257.966" r="16.8269" transform="rotate(-54.5828 661.537 257.966)" fill="#B49082" fill-opacity="0.56"/>
<circle cx="644.772" cy="156.465" r="16.8269" transform="rotate(-54.5828 644.772 156.465)" fill="#B49082" fill-opacity="0.46"/>
<circle cx="750.361" cy="251.881" r="16.8269" transform="rotate(-54.5828 750.361 251.881)" fill="#B49082" fill-opacity="0.72"/>
<line x1="657.735" y1="242.256" x2="646.511" y2="171.378" stroke="#B49082" stroke-width="3"/>
<line x1="678.596" y1="261.369" x2="738.774" y2="257.15" stroke="#B49082" stroke-width="3"/>
</g>
<g opacity="0.47">
<circle cx="1364.54" cy="552.966" r="16.8269" transform="rotate(-54.5828 1364.54 552.966)" fill="#B49082" fill-opacity="0.56"/>
<circle cx="1347.77" cy="451.465" r="16.8269" transform="rotate(-54.5828 1347.77 451.465)" fill="#B49082" fill-opacity="0.46"/>
<circle cx="1453.36" cy="546.881" r="16.8269" transform="rotate(-54.5828 1453.36 546.881)" fill="#B49082" fill-opacity="0.72"/>
<line x1="1360.73" y1="537.256" x2="1349.51" y2="466.378" stroke="#B49082" stroke-width="3"/>
<line x1="1381.6" y1="556.369" x2="1441.77" y2="552.149" stroke="#B49082" stroke-width="3"/>
</g>
<g opacity="0.47">
<circle cx="231.538" cy="295.966" r="16.8269" transform="rotate(-54.5828 231.538 295.966)" fill="#B49082" fill-opacity="0.56"/>
<circle cx="214.773" cy="194.465" r="16.8269" transform="rotate(-54.5828 214.773 194.465)" fill="#B49082" fill-opacity="0.46"/>
<circle cx="320.362" cy="289.881" r="16.8269" transform="rotate(-54.5828 320.362 289.881)" fill="#B49082" fill-opacity="0.72"/>
<line x1="227.736" y1="280.256" x2="216.512" y2="209.378" stroke="#B49082" stroke-width="3"/>
<line x1="248.597" y1="299.369" x2="308.775" y2="295.15" stroke="#B49082" stroke-width="3"/>
<circle cx="316.556" cy="285.623" r="16.8269" transform="rotate(148.072 316.556 285.623)" fill="#B49082" fill-opacity="0.56"/>
<circle cx="292.932" cy="385.75" r="16.8269" transform="rotate(148.072 292.932 385.75)" fill="#B49082" fill-opacity="0.46"/>
<line x1="314.014" y1="301.586" x2="297.071" y2="371.318" stroke="#B49082" stroke-width="3"/>
<line x1="302.124" y1="275.912" x2="244.963" y2="256.627" stroke="#B49082" stroke-width="3"/>
</g>
<g opacity="0.47">
<circle cx="816.5" cy="350.5" r="32.5" fill="#B49082" fill-opacity="0.76"/>
<circle cx="1000.5" cy="329.5" r="32.5" fill="#B49082" fill-opacity="0.46"/>
<circle cx="925.5" cy="483.5" r="32.5" fill="#B49082" fill-opacity="0.59"/>
<line x1="936.68" y1="450.288" x2="984.68" y2="361.288" stroke="#B49082" stroke-width="3"/>
<line x1="829.159" y1="382.047" x2="903.159" y2="472.047" stroke="#B49082" stroke-width="3"/>
</g>
<g opacity="0.47">
<circle cx="956" cy="604" r="22" fill="#B49082" fill-opacity="0.76"/>
<circle cx="1122.5" cy="581.5" r="32.5" fill="#B49082" fill-opacity="0.46"/>
<circle cx="909.5" cy="727.5" r="24.5" fill="#B49082" fill-opacity="0.46"/>
<circle cx="1047.5" cy="735.5" r="32.5" fill="#B49082" fill-opacity="0.59"/>
<line x1="1058.68" y1="702.288" x2="1106.68" y2="613.288" stroke="#B49082" stroke-width="3"/>
<line x1="933.08" y1="713.816" x2="1090.08" y2="591.816" stroke="#B49082" stroke-width="3"/>
<line x1="972.75" y1="601.521" x2="1096.75" y2="580.521" stroke="#B49082" stroke-width="3"/>
<line x1="934" y1="734.5" x2="1015" y2="734.5" stroke="#B49082" stroke-width="3"/>
</g>
<g opacity="0.47">
<circle cx="686" cy="845" r="22" fill="#B49082" fill-opacity="0.76"/>
<circle cx="852.5" cy="822.5" r="32.5" fill="#B49082" fill-opacity="0.46"/>
<circle cx="639.5" cy="968.5" r="24.5" fill="#B49082" fill-opacity="0.46"/>
<circle cx="777.5" cy="976.5" r="32.5" fill="#B49082" fill-opacity="0.59"/>
<line x1="788.68" y1="943.288" x2="836.68" y2="854.288" stroke="#B49082" stroke-width="3"/>
<line x1="663.08" y1="954.816" x2="820.08" y2="832.816" stroke="#B49082" stroke-width="3"/>
<line x1="702.75" y1="842.521" x2="826.75" y2="821.521" stroke="#B49082" stroke-width="3"/>
<line x1="664" y1="975.5" x2="745" y2="975.5" stroke="#B49082" stroke-width="3"/>
</g>
<g opacity="0.47">
<circle cx="692" cy="560" r="22" fill="#B49082" fill-opacity="0.76"/>
<circle cx="785.5" cy="570.5" r="32.5" fill="#B49082" fill-opacity="0.46"/>
<circle cx="645.5" cy="683.5" r="24.5" fill="#B49082" fill-opacity="0.46"/>
<circle cx="783.5" cy="691.5" r="32.5" fill="#B49082" fill-opacity="0.8"/>
<line x1="668.973" y1="669.907" x2="751.973" y2="591.907" stroke="#B49082" stroke-width="3"/>
<line x1="641.648" y1="658.35" x2="678.648" y2="581.35" stroke="#B49082" stroke-width="3"/>
<line x1="670" y1="690.5" x2="751" y2="690.5" stroke="#B49082" stroke-width="3"/>
</g>
<g opacity="0.47">
<circle cx="651.363" cy="349.322" r="22" transform="rotate(73.6284 651.363 349.322)" fill="#B49082" fill-opacity="0.76"/>
<circle cx="667.643" cy="441.991" r="32.5" transform="rotate(73.6284 667.643 441.991)" fill="#B49082" fill-opacity="0.46"/>
<circle cx="519.764" cy="339.518" r="24.5" transform="rotate(73.6284 519.764 339.518)" fill="#B49082" fill-opacity="0.46"/>
<circle cx="550.986" cy="474.178" r="32.5" transform="rotate(73.6284 550.986 474.178)" fill="#B49082" fill-opacity="0.8"/>
<line x1="539.422" y1="358.208" x2="637.654" y2="415.857" stroke="#B49082" stroke-width="3"/>
<line x1="542.808" y1="328.733" x2="627.115" y2="342.53" stroke="#B49082" stroke-width="3"/>
<line x1="519.953" y1="364.998" x2="542.784" y2="442.714" stroke="#B49082" stroke-width="3"/>
</g>
<g opacity="0.47">
<circle cx="235.5" cy="67.5" r="24.5" fill="#B49082" fill-opacity="0.46"/>
<circle cx="373.5" cy="75.5" r="32.5" fill="#B49082" fill-opacity="0.59"/>
<line x1="384.68" y1="42.288" x2="432.68" y2="-46.712" stroke="#B49082" stroke-width="3"/>
<line x1="259.08" y1="53.8156" x2="416.08" y2="-68.1844" stroke="#B49082" stroke-width="3"/>
<line x1="260" y1="74.5" x2="341" y2="74.5" stroke="#B49082" stroke-width="3"/>
</g>
<g opacity="0.47">
<circle cx="846.5" cy="48.5" r="24.5" fill="#B49082" fill-opacity="0.46"/>
<circle cx="984.5" cy="56.5" r="32.5" fill="#B49082" fill-opacity="0.8"/>
<line x1="869.973" y1="34.9069" x2="952.973" y2="-43.0931" stroke="#B49082" stroke-width="3"/>
<line x1="842.648" y1="23.3503" x2="879.648" y2="-53.6497" stroke="#B49082" stroke-width="3"/>
<line x1="871" y1="55.5" x2="952" y2="55.5" stroke="#B49082" stroke-width="3"/>
</g>
<g opacity="0.47">
<ellipse cx="583.959" cy="143.608" rx="15.7944" ry="15.8579" transform="rotate(94.2936 583.959 143.608)" fill="#B49082" fill-opacity="0.76"/>
<ellipse cx="571.386" cy="209.979" rx="23.3326" ry="23.4264" transform="rotate(94.2936 571.386 209.979)" fill="#B49082" fill-opacity="0.46"/>
<ellipse cx="497.688" cy="103.653" rx="17.5892" ry="17.6599" transform="rotate(94.2936 497.688 103.653)" fill="#B49082" fill-opacity="0.46"/>
<ellipse cx="484.519" cy="202.018" rx="23.3326" ry="23.4264" transform="rotate(94.2936 484.519 202.018)" fill="#B49082" fill-opacity="0.8"/>
<line y1="-1.5" x2="81.9255" y2="-1.5" transform="matrix(0.629894 0.776681 -0.779197 0.626779 505.355 121.868)" stroke="#B49082" stroke-width="3"/>
<line y1="-1.5" x2="61.5316" y2="-1.5" transform="matrix(0.867165 0.498021 -0.500735 0.865601 515.432 103.186)" stroke="#B49082" stroke-width="3"/>
<line x1="491.757" y1="120.847" x2="487.403" y2="178.836" stroke="#B49082" stroke-width="3"/>
</g>
<g opacity="0.47">
<ellipse cx="1261.62" cy="783.87" rx="22.0097" ry="23.6987" transform="rotate(179.821 1261.62 783.87)" fill="#B49082" fill-opacity="0.35"/>
<ellipse cx="1353.81" cy="850.787" rx="22.0097" ry="23.6987" transform="rotate(179.821 1353.81 850.787)" fill="#B49082" fill-opacity="0.35"/>
<ellipse cx="1261.98" cy="898.472" rx="22.0097" ry="23.6987" transform="rotate(179.821 1261.98 898.472)" fill="#B49082" fill-opacity="0.35"/>
<line x1="1262.87" y1="807.565" x2="1263.08" y2="874.77" stroke="#B49082" stroke-width="3"/>
<line y1="-1.5" x2="54.3035" y2="-1.5" transform="matrix(-0.881741 0.471735 -0.419243 -0.907874 1331.84 861.821)" stroke="#B49082" stroke-width="3"/>
</g>
<g opacity="0.47">
<ellipse cx="1201.27" cy="30.0545" rx="22.0097" ry="23.6987" transform="rotate(179.821 1201.27 30.0545)" fill="#B49082" fill-opacity="0.35"/>
<ellipse cx="1293.46" cy="96.9723" rx="22.0097" ry="23.6987" transform="rotate(179.821 1293.46 96.9723)" fill="#B49082" fill-opacity="0.35"/>
<ellipse cx="1201.62" cy="144.657" rx="22.0097" ry="23.6987" transform="rotate(179.821 1201.62 144.657)" fill="#B49082" fill-opacity="0.35"/>
<line x1="1202.51" y1="53.7495" x2="1202.72" y2="120.954" stroke="#B49082" stroke-width="3"/>
<line y1="-1.5" x2="54.3035" y2="-1.5" transform="matrix(-0.881741 0.471735 -0.419243 -0.907874 1271.48 108.006)" stroke="#B49082" stroke-width="3"/>
</g>
<g opacity="0.47">
<ellipse cx="1441.08" cy="912.421" rx="22.0097" ry="21.0655" transform="rotate(179.821 1441.08 912.421)" fill="#B49082" fill-opacity="0.35"/>
<ellipse cx="1533.24" cy="971.872" rx="22.0097" ry="21.0655" transform="rotate(179.821 1533.24 971.872)" fill="#B49082" fill-opacity="0.35"/>
<ellipse cx="1441.39" cy="1014.29" rx="22.0097" ry="21.0655" transform="rotate(179.821 1441.39 1014.29)" fill="#B49082" fill-opacity="0.35"/>
<line x1="1442.31" y1="933.483" x2="1442.5" y2="993.221" stroke="#B49082" stroke-width="3"/>
<line y1="-1.5" x2="53.0354" y2="-1.5" transform="matrix(-0.902991 0.42966 -0.460801 -0.887503 1511.26 981.687)" stroke="#B49082" stroke-width="3"/>
</g>
<g opacity="0.47">
<ellipse cx="1641.22" cy="918.538" rx="27.1955" ry="23.0989" transform="rotate(179.821 1641.22 918.538)" fill="#B49082" fill-opacity="0.35"/>
<ellipse cx="1755.08" cy="983.688" rx="27.1955" ry="23.0989" transform="rotate(179.821 1755.08 983.688)" fill="#B49082" fill-opacity="0.35"/>
<ellipse cx="1641.57" cy="1030.24" rx="27.1955" ry="23.0989" transform="rotate(179.821 1641.57 1030.24)" fill="#B49082" fill-opacity="0.35"/>
<line x1="1642.39" y1="941.634" x2="1642.6" y2="1007.14" stroke="#B49082" stroke-width="3"/>
<line y1="-1.5" x2="64.2505" y2="-1.5" transform="matrix(-0.921145 0.38922 -0.504811 -0.86323 1727.92 994.46)" stroke="#B49082" stroke-width="3"/>
</g>
<g opacity="0.47">
<ellipse cx="1221.8" cy="989.485" rx="22.0097" ry="21.0655" transform="rotate(-55.6831 1221.8 989.485)" fill="#B49082" fill-opacity="0.35"/>
<ellipse cx="1120.6" cy="1031.78" rx="22.0097" ry="21.0655" transform="rotate(-55.6831 1120.6 1031.78)" fill="#B49082" fill-opacity="0.35"/>
<ellipse cx="1137.66" cy="932.054" rx="22.0097" ry="21.0655" transform="rotate(-55.6831 1137.66 932.054)" fill="#B49082" fill-opacity="0.35"/>
<line x1="1203.74" y1="978.577" x2="1154.4" y2="944.898" stroke="#B49082" stroke-width="3"/>
<line y1="-1.5" x2="53.0354" y2="-1.5" transform="matrix(0.157293 -0.987552 0.992424 0.122856 1124.96 1008.1)" stroke="#B49082" stroke-width="3"/>
</g>
<g opacity="0.47">
<circle cx="1555.05" cy="776.289" r="16.8269" transform="rotate(125.238 1555.05 776.289)" fill="#B49082" fill-opacity="0.56"/>
<circle cx="1572.13" cy="877.737" r="16.8269" transform="rotate(125.238 1572.13 877.737)" fill="#B49082" fill-opacity="0.46"/>
<circle cx="1466.25" cy="782.651" r="16.8269" transform="rotate(125.238 1466.25 782.651)" fill="#B49082" fill-opacity="0.72"/>
<line x1="1558.9" y1="791.987" x2="1570.35" y2="862.829" stroke="#B49082" stroke-width="3"/>
<line x1="1537.98" y1="772.939" x2="1477.82" y2="777.347" stroke="#B49082" stroke-width="3"/>
</g>
<g opacity="0.47">
<circle cx="1399.8" cy="684.239" r="32.5" transform="rotate(179.821 1399.8 684.239)" fill="#B49082" fill-opacity="0.76"/>
<circle cx="1215.87" cy="705.814" r="32.5" transform="rotate(179.821 1215.87 705.814)" fill="#B49082" fill-opacity="0.46"/>
<circle cx="1290.39" cy="551.58" r="32.5" transform="rotate(179.821 1290.39 551.58)" fill="#B49082" fill-opacity="0.59"/>
<line x1="1279.31" y1="584.827" x2="1231.59" y2="673.976" stroke="#B49082" stroke-width="3"/>
<line x1="1387.04" y1="652.732" x2="1312.76" y2="562.963" stroke="#B49082" stroke-width="3"/>
</g>
<g opacity="0.47">
<circle cx="1259.51" cy="431.176" r="22" transform="rotate(179.821 1259.51 431.176)" fill="#B49082" fill-opacity="0.76"/>
<circle cx="1093.08" cy="454.196" r="32.5" transform="rotate(179.821 1093.08 454.196)" fill="#B49082" fill-opacity="0.46"/>
<circle cx="1305.62" cy="307.531" r="24.5" transform="rotate(179.821 1305.62 307.531)" fill="#B49082" fill-opacity="0.46"/>
<circle cx="1167.6" cy="299.962" r="32.5" transform="rotate(179.821 1167.6 299.962)" fill="#B49082" fill-opacity="0.59"/>
<line x1="1156.52" y1="333.209" x2="1108.8" y2="422.358" stroke="#B49082" stroke-width="3"/>
<line x1="1282.09" y1="321.289" x2="1125.47" y2="443.779" stroke="#B49082" stroke-width="3"/>
<line x1="1242.77" y1="433.707" x2="1118.83" y2="455.094" stroke="#B49082" stroke-width="3"/>
<line x1="1281.1" y1="300.608" x2="1200.1" y2="300.861" stroke="#B49082" stroke-width="3"/>
</g>
<g opacity="0.47">
<ellipse cx="1829.56" cy="886.476" rx="22.9981" ry="22" transform="rotate(-141.847 1829.56 886.476)" fill="#B49082" fill-opacity="0.76"/>
<ellipse cx="1678.79" cy="796.644" rx="33.9745" ry="32.5" transform="rotate(-141.847 1678.79 796.644)" fill="#B49082" fill-opacity="0.46"/>
<ellipse cx="1944.08" cy="819.39" rx="25.6116" ry="24.5" transform="rotate(-141.847 1944.08 819.39)" fill="#B49082" fill-opacity="0.46"/>
<ellipse cx="1835.58" cy="723.98" rx="33.9745" ry="32.5" transform="rotate(-141.847 1835.58 723.98)" fill="#B49082" fill-opacity="0.59"/>
<line y1="-1.5" x2="102.171" y2="-1.5" transform="matrix(-0.924329 0.381596 -0.415593 -0.909551 1805.23 741.464)" stroke="#B49082" stroke-width="3"/>
<line y1="-1.5" x2="204.5" y2="-1.5" transform="matrix(-0.999644 -0.0266696 -0.0163106 -0.999867 1916.22 813.398)" stroke="#B49082" stroke-width="3"/>
<line y1="-1.5" x2="131.316" y2="-1.5" transform="matrix(-0.875033 -0.484062 0.471224 -0.882014 1814.97 876.284)" stroke="#B49082" stroke-width="3"/>
<line x1="1928.27" y1="798.064" x2="1861.68" y2="745.754" stroke="#B49082" stroke-width="3"/>
</g>
<g opacity="0.47">
<ellipse cx="1935.56" cy="647.476" rx="22.9981" ry="22" transform="rotate(-141.847 1935.56 647.476)" fill="#B49082" fill-opacity="0.76"/>
<ellipse cx="1784.79" cy="557.644" rx="33.9745" ry="32.5" transform="rotate(-141.847 1784.79 557.644)" fill="#B49082" fill-opacity="0.46"/>
<ellipse cx="1941.58" cy="484.98" rx="33.9745" ry="32.5" transform="rotate(-141.847 1941.58 484.98)" fill="#B49082" fill-opacity="0.59"/>
<line y1="-1.5" x2="102.171" y2="-1.5" transform="matrix(-0.924329 0.381596 -0.415593 -0.909551 1911.23 502.464)" stroke="#B49082" stroke-width="3"/>
<line y1="-1.5" x2="204.5" y2="-1.5" transform="matrix(-0.999644 -0.0266696 -0.0163106 -0.999867 2022.22 574.398)" stroke="#B49082" stroke-width="3"/>
<line y1="-1.5" x2="131.316" y2="-1.5" transform="matrix(-0.875033 -0.484062 0.471224 -0.882014 1920.97 637.284)" stroke="#B49082" stroke-width="3"/>
</g>
<g opacity="0.47">
<circle cx="1528.76" cy="189.334" r="22" transform="rotate(179.821 1528.76 189.334)" fill="#B49082" fill-opacity="0.76"/>
<circle cx="1362.33" cy="212.354" r="32.5" transform="rotate(179.821 1362.33 212.354)" fill="#B49082" fill-opacity="0.46"/>
<circle cx="1574.87" cy="65.6895" r="24.5" transform="rotate(179.821 1574.87 65.6895)" fill="#B49082" fill-opacity="0.46"/>
<circle cx="1436.85" cy="58.1204" r="32.5" transform="rotate(179.821 1436.85 58.1204)" fill="#B49082" fill-opacity="0.59"/>
<line x1="1425.77" y1="91.3672" x2="1378.05" y2="180.517" stroke="#B49082" stroke-width="3"/>
<line x1="1551.33" y1="79.4475" x2="1394.72" y2="201.937" stroke="#B49082" stroke-width="3"/>
<line x1="1512.02" y1="191.865" x2="1388.08" y2="213.252" stroke="#B49082" stroke-width="3"/>
<line x1="1550.35" y1="58.7661" x2="1469.35" y2="59.019" stroke="#B49082" stroke-width="3"/>
</g>
<g opacity="0.47">
<circle cx="1523.65" cy="474.352" r="22" transform="rotate(179.821 1523.65 474.352)" fill="#B49082" fill-opacity="0.76"/>
<circle cx="1430.11" cy="464.143" r="32.5" transform="rotate(179.821 1430.11 464.143)" fill="#B49082" fill-opacity="0.46"/>
<circle cx="1569.76" cy="350.707" r="24.5" transform="rotate(179.821 1569.76 350.707)" fill="#B49082" fill-opacity="0.46"/>
<circle cx="1431.74" cy="343.138" r="32.5" transform="rotate(179.821 1431.74 343.138)" fill="#B49082" fill-opacity="0.8"/>
<line x1="1546.33" y1="364.373" x2="1463.57" y2="442.632" stroke="#B49082" stroke-width="3"/>
<line x1="1573.69" y1="375.844" x2="1536.93" y2="452.96" stroke="#B49082" stroke-width="3"/>
<line x1="1545.24" y1="343.783" x2="1464.24" y2="344.036" stroke="#B49082" stroke-width="3"/>
</g>
<g opacity="0.47">
<circle cx="1564.94" cy="684.901" r="22" transform="rotate(-106.55 1564.94 684.901)" fill="#B49082" fill-opacity="0.76"/>
<circle cx="1548.37" cy="592.284" r="32.5" transform="rotate(-106.55 1548.37 592.284)" fill="#B49082" fill-opacity="0.46"/>
<circle cx="1696.57" cy="694.295" r="24.5" transform="rotate(-106.55 1696.57 694.295)" fill="#B49082" fill-opacity="0.46"/>
<circle cx="1664.93" cy="559.733" r="32.5" transform="rotate(-106.55 1664.93 559.733)" fill="#B49082" fill-opacity="0.8"/>
<line x1="1676.85" y1="675.666" x2="1578.44" y2="618.324" stroke="#B49082" stroke-width="3"/>
<line x1="1673.56" y1="705.151" x2="1589.21" y2="691.618" stroke="#B49082" stroke-width="3"/>
<line x1="1696.3" y1="668.816" x2="1673.23" y2="591.172" stroke="#B49082" stroke-width="3"/>
</g>
<g opacity="0.47">
<ellipse cx="1885.59" cy="140.041" rx="22.0097" ry="21.0655" transform="rotate(6.70375 1885.59 140.041)" fill="#B49082" fill-opacity="0.35"/>
<ellipse cx="1801.21" cy="69.9737" rx="22.0097" ry="21.0655" transform="rotate(6.70375 1801.21 69.9737)" fill="#B49082" fill-opacity="0.35"/>
<ellipse cx="1897.48" cy="38.8682" rx="22.0097" ry="21.0655" transform="rotate(6.70375 1897.48 38.8682)" fill="#B49082" fill-opacity="0.35"/>
<line x1="1886.88" y1="118.982" x2="1893.85" y2="59.6529" stroke="#B49082" stroke-width="3"/>
<line y1="-1.5" x2="53.0354" y2="-1.5" transform="matrix(0.947972 -0.318353 0.351126 0.936328 1824.2 62.863)" stroke="#B49082" stroke-width="3"/>
</g>
<g opacity="0.47">
<circle cx="1802.42" cy="261.192" r="16.8269" transform="rotate(-47.879 1802.42 261.192)" fill="#B49082" fill-opacity="0.56"/>
<circle cx="1797.62" cy="158.428" r="16.8269" transform="rotate(-47.879 1797.62 158.428)" fill="#B49082" fill-opacity="0.46"/>
<circle cx="1891.35" cy="265.518" r="16.8269" transform="rotate(-47.879 1891.35 265.518)" fill="#B49082" fill-opacity="0.72"/>
<line x1="1800.48" y1="245.146" x2="1797.61" y2="173.443" stroke="#B49082" stroke-width="3"/>
<line x1="1818.97" y1="266.563" x2="1879.23" y2="269.398" stroke="#B49082" stroke-width="3"/>
</g>
<g opacity="0.78">
<circle cx="1618.08" cy="161.019" r="16.8269" transform="rotate(22.2946 1618.08 161.019)" fill="#B49082" fill-opacity="0.56"/>
<circle cx="1713.12" cy="121.648" r="16.8269" transform="rotate(22.2946 1713.12 121.648)" fill="#B49082" fill-opacity="0.46"/>
<circle cx="1644.17" cy="246.142" r="16.8269" transform="rotate(22.2946 1644.17 246.142)" fill="#B49082" fill-opacity="0.72"/>
<line x1="1632.51" y1="153.75" x2="1698.99" y2="126.728" stroke="#B49082" stroke-width="3"/>
<line x1="1618.64" y1="178.405" x2="1636.41" y2="236.054" stroke="#B49082" stroke-width="3"/>
</g>
<g opacity="0.47">
<circle cx="1781.65" cy="350.736" r="22" transform="rotate(80.3322 1781.65 350.736)" fill="#B49082" fill-opacity="0.76"/>
<circle cx="1787" cy="444.672" r="32.5" transform="rotate(80.3322 1787 444.672)" fill="#B49082" fill-opacity="0.46"/>
<circle cx="1652.1" cy="325.637" r="24.5" transform="rotate(80.3322 1652.1 325.637)" fill="#B49082" fill-opacity="0.46"/>
<circle cx="1667.39" cy="463.02" r="32.5" transform="rotate(80.3322 1667.39 463.02)" fill="#B49082" fill-opacity="0.8"/>
<line x1="1669.44" y1="346.493" x2="1760.27" y2="415.216" stroke="#B49082" stroke-width="3"/>
<line x1="1676.24" y1="317.616" x2="1758.36" y2="341.159" stroke="#B49082" stroke-width="3"/>
<line x1="1649.31" y1="350.964" x2="1662.91" y2="430.814" stroke="#B49082" stroke-width="3"/>
</g>
<g opacity="0.47">
<ellipse cx="1100.6" cy="863.578" rx="10.3663" ry="11.1454" transform="rotate(-106.55 1100.6 863.578)" fill="#B49082" fill-opacity="0.76"/>
<ellipse cx="1093.14" cy="819.831" rx="15.3139" ry="16.4648" transform="rotate(-106.55 1093.14 819.831)" fill="#B49082" fill-opacity="0.46"/>
<ellipse cx="1166.81" cy="866.759" rx="11.5443" ry="12.4119" transform="rotate(-106.55 1166.81 866.759)" fill="#B49082" fill-opacity="0.46"/>
<ellipse cx="1152.17" cy="803.273" rx="15.3139" ry="16.4648" transform="rotate(-106.55 1152.17 803.273)" fill="#B49082" fill-opacity="0.8"/>
<line y1="-1.5" x2="55.5968" y2="-1.5" transform="matrix(-0.881685 -0.471838 0.53426 -0.84532 1157.45 857.496)" stroke="#B49082" stroke-width="3"/>
<line y1="-1.5" x2="42.7275" y2="-1.5" transform="matrix(-0.991374 -0.131062 0.186898 -0.982379 1155.25 871.423)" stroke="#B49082" stroke-width="3"/>
<line x1="1166.21" y1="854.893" x2="1155.34" y2="818.308" stroke="#B49082" stroke-width="3"/>
</g>
<g opacity="0.47">
<ellipse cx="1045.6" cy="234.578" rx="10.3663" ry="11.1454" transform="rotate(-106.55 1045.6 234.578)" fill="#B49082" fill-opacity="0.76"/>
<ellipse cx="1038.14" cy="190.831" rx="15.3139" ry="16.4648" transform="rotate(-106.55 1038.14 190.831)" fill="#B49082" fill-opacity="0.46"/>
<ellipse cx="1111.81" cy="237.759" rx="11.5443" ry="12.4119" transform="rotate(-106.55 1111.81 237.759)" fill="#B49082" fill-opacity="0.46"/>
<ellipse cx="1097.17" cy="174.273" rx="15.3139" ry="16.4648" transform="rotate(-106.55 1097.17 174.273)" fill="#B49082" fill-opacity="0.8"/>
<line y1="-1.5" x2="55.5968" y2="-1.5" transform="matrix(-0.881685 -0.471838 0.53426 -0.84532 1102.45 228.496)" stroke="#B49082" stroke-width="3"/>
<line y1="-1.5" x2="42.7275" y2="-1.5" transform="matrix(-0.991374 -0.131062 0.186898 -0.982379 1100.25 242.423)" stroke="#B49082" stroke-width="3"/>
<line x1="1111.21" y1="225.893" x2="1100.34" y2="189.308" stroke="#B49082" stroke-width="3"/>
<g opacity="0.47">
<ellipse cx="1133.28" cy="152.895" rx="10.3663" ry="11.0618" transform="rotate(140.472 1133.28 152.895)" fill="#B49082" fill-opacity="0.76"/>
<ellipse cx="1095.93" cy="176.864" rx="15.3139" ry="16.3413" transform="rotate(140.472 1095.93 176.864)" fill="#B49082" fill-opacity="0.46"/>
<ellipse cx="1110.65" cy="91.0543" rx="11.5443" ry="12.3188" transform="rotate(140.472 1110.65 91.0543)" fill="#B49082" fill-opacity="0.46"/>
<ellipse cx="1057.94" cy="129.338" rx="15.3139" ry="16.3413" transform="rotate(140.472 1057.94 129.338)" fill="#B49082" fill-opacity="0.8"/>
<line y1="-1.5" x2="55.3866" y2="-1.5" transform="matrix(-0.0939576 0.995576 -0.987408 -0.158191 1105.75 103.249)" stroke="#B49082" stroke-width="3"/>
<line y1="-1.5" x2="42.4606" y2="-1.5" transform="matrix(0.263636 0.964622 -0.976741 0.214423 1119.4 99.8063)" stroke="#B49082" stroke-width="3"/>
<line x1="1099.98" y1="96.2619" x2="1070.55" y2="120.554" stroke="#B49082" stroke-width="3"/>
</g>
</g>
<g opacity="0.47">
<ellipse cx="530.647" cy="835.159" rx="12.8163" ry="14.0587" transform="rotate(-16.3547 530.647 835.159)" fill="#B49082" fill-opacity="0.76"/>
<ellipse cx="584.802" cy="826.259" rx="18.9332" ry="20.7685" transform="rotate(-16.3547 584.802 826.259)" fill="#B49082" fill-opacity="0.46"/>
<ellipse cx="526.877" cy="918.514" rx="14.2727" ry="15.6563" transform="rotate(-16.3547 526.877 918.514)" fill="#B49082" fill-opacity="0.46"/>
<ellipse cx="605.457" cy="900.782" rx="18.9332" ry="20.7685" transform="rotate(-16.3547 605.457 900.782)" fill="#B49082" fill-opacity="0.8"/>
<line y1="-1.5" x2="69.4438" y2="-1.5" transform="matrix(0.465999 -0.884785 0.838117 0.545491 538.322 906.83)" stroke="#B49082" stroke-width="3"/>
<line y1="-1.5" x2="53.7195" y2="-1.5" transform="matrix(0.127089 -0.991891 0.980136 0.198324 521.07 903.901)" stroke="#B49082" stroke-width="3"/>
<line x1="541.679" y1="918.267" x2="586.957" y2="904.98" stroke="#B49082" stroke-width="3"/>
</g>
</g>
</svg>
